<?xml version="1.0" encoding="UTF-8" standalone="no"?>
<!-- Created with Inkscape (http://www.inkscape.org/) -->

<svg
   width="48"
   height="48"
   viewBox="0 0 12.7 12.7"
   version="1.1"
   id="svg5"
   inkscape:version="1.2.1 (9c6d41e410, 2022-07-14)"
   sodipodi:docname="favicon_project.svg"
   xmlns:inkscape="http://www.inkscape.org/namespaces/inkscape"
   xmlns:sodipodi="http://sodipodi.sourceforge.net/DTD/sodipodi-0.dtd"
   xmlns="http://www.w3.org/2000/svg"
   xmlns:svg="http://www.w3.org/2000/svg">
  <sodipodi:namedview
     id="namedview7"
     pagecolor="#505050"
     bordercolor="#eeeeee"
     borderopacity="1"
     inkscape:showpageshadow="0"
     inkscape:pageopacity="0"
     inkscape:pagecheckerboard="0"
     inkscape:deskcolor="#505050"
     inkscape:document-units="mm"
     showgrid="true"
     inkscape:zoom="8.4096521"
     inkscape:cx="35.792206"
     inkscape:cy="27.765715"
     inkscape:window-width="1366"
     inkscape:window-height="717"
     inkscape:window-x="0"
     inkscape:window-y="0"
     inkscape:window-maximized="1"
     inkscape:current-layer="layer1">
    <inkscape:grid
       type="xygrid"
       id="grid300" />
  </sodipodi:namedview>
  <defs
     id="defs2" />
  <g
     inkscape:label="Layer 1"
     inkscape:groupmode="layer"
     id="layer1">
    <path
       style="fill:#0000ff;stroke-width:1"
       id="path647"
       d="M 1.5491282,5.741775 C 1.776342,5.6218727 2.012584,5.520701 2.2428366,5.4066148 2.5870973,5.234606 2.9439941,5.0733949 3.2459435,4.8300309 3.4269034,4.6841812 3.4925111,4.5973452 3.6457606,4.4263241 3.757581,4.2727123 3.8497263,4.1598265 3.9352206,3.9897777 4.0407587,3.7798615 4.1208695,3.5234792 4.1592989,3.291541 4.1709829,3.2210216 4.174015,3.1493388 4.1813731,3.0782379 4.1879337,2.8371509 4.1565578,2.5626406 4.0137508,2.3585209 3.9959391,2.3330616 3.9727944,2.3117842 3.9523162,2.2884158 3.6527486,2.1200292 3.360852,1.9372014 3.0536134,1.7832558 3.0246291,1.7687329 2.9882729,1.7827726 2.9565547,1.7894778 2.8252843,1.8172281 2.7051854,1.9083957 2.6399219,2.025456 2.6014861,2.0943967 2.5811933,2.1719874 2.551829,2.2452532 2.3902423,2.9003392 2.3508976,3.5750523 2.3244353,4.2465333 2.3193225,4.3627995 2.314742,4.4790904 2.3090963,4.595332 2.2935322,4.9157911 2.289128,5.034684 2.2548729,5.3549735 2.2190716,5.6897211 2.1647976,6.0214726 2.1079246,6.3531077 2.018039,6.8133967 1.9301009,7.2741019 1.8084157,7.7271969 1.7070601,8.0474507 1.5929724,8.3792993 1.3812924,8.6462522 c -0.029166,0.036782 -0.063752,0.068921 -0.095629,0.1033815 -0.029457,0.015721 -0.055147,0.043845 -0.088371,0.047166 -0.024404,0.00243 -0.088133,-0.043059 -0.066402,-0.031691 C 1.3827335,8.896847 1.6230716,9.0541529 1.8876646,9.157932 1.934992,9.176495 1.8279101,9.075113 1.8052472,9.0296065 1.7397272,8.8980438 1.717659,8.7892548 1.6787805,8.6477376 1.6182573,8.3420629 1.5569289,8.0184082 1.6280389,7.7082152 1.6390116,7.6603502 1.6582113,7.6147516 1.6732976,7.5680199 1.7964593,7.2903087 1.972937,7.1645041 2.2195009,7.0042764 2.5843941,6.7875324 2.9737267,6.6161917 3.3645001,6.4523532 3.8499608,6.2284858 4.3621817,6.0738075 4.8776125,5.9366917 5.2918886,5.8300699 5.7177196,5.7910846 6.1439567,5.7783078 c 0.1266341,-0.00568 0.2535566,0.00548 0.3801705,-4.233e-4 0.022339,-0.00103 0.046961,0.00369 0.066752,-0.00673 0.019307,-0.01016 0.059038,-0.037034 0.041781,-0.050385 C 6.3633571,5.512431 6.0684743,5.3394371 5.7863816,5.1487686 5.5629082,5.1432838 5.3403788,5.1179608 5.1167749,5.1179229 4.889759,5.1163883 4.6738823,5.1894088 4.4758456,5.2951768 4.2382352,5.4347795 4.0973605,5.637086 3.9508948,5.8638725 3.7963609,6.1292266 3.6970078,6.4188736 3.6353339,6.7184229 c -0.015065,0.2115633 -0.024405,0.4250383 -0.00602,0.6367862 0.00834,0.096089 0.018854,0.150417 0.034071,0.2437263 0.016782,0.066609 0.024892,0.1156044 0.055323,0.1767845 0.017365,0.03491 0.06266,0.1034055 0.097598,0.1246635 C 4.6659579,8.4173461 4.3761428,8.3418475 4.788673,8.4368898 5.0765738,8.471192 5.3347045,8.341207 5.5807929,8.2091952 5.9062955,8.0174483 6.1943532,7.7664529 6.4305534,7.4714237 6.4776159,7.4126393 6.519207,7.3496759 6.5635337,7.2888019 6.7464254,7.010791 6.8685078,6.7006292 6.9670122,6.3844682 c 0.02685,-0.092062 0.042162,-0.1866601 0.058849,-0.2808721 0.0036,-0.020323 0.00707,-0.040677 0.011258,-0.060888 0.00246,-0.011906 0.018944,-0.028882 0.00869,-0.035423 C 6.7665329,5.8290369 6.4752021,5.6704139 6.1898963,5.5019789 6.0931205,5.691806 6.0555475,5.9060746 6.010194,6.1126086 5.962339,6.4180042 5.9293045,6.7264568 5.9344713,7.0357695 5.9451578,7.2557883 5.994464,7.4704227 6.0823448,7.6719683 6.1382764,7.7807586 6.2181451,7.8850539 6.32666,7.9466222 7.2319652,8.4602655 6.8911212,8.4044927 7.3294702,8.4601589 7.3682523,8.4565235 7.4077461,8.4574945 7.445817,8.4492554 7.653756,8.4042545 7.8714435,8.2699306 8.0283091,8.130482 8.0795076,8.0849683 8.1249302,8.033346 8.1732407,7.984778 8.2176857,7.929804 8.2660108,7.8777522 8.3065762,7.8198561 8.4122648,7.6690134 8.458152,7.5649531 8.5313371,7.3946749 8.6219114,7.1839375 8.6955695,6.9680666 8.7657333,6.7499515 8.8565071,6.4660951 8.9491189,6.1829216 9.0447764,5.9006885 c 0.028008,-0.081966 0.051148,-0.1655773 0.078356,-0.2477876 0.00543,-0.016404 0.00996,-0.033284 0.017785,-0.048689 0.00241,-0.00474 0.016912,-0.00786 0.012184,-0.010303 C 8.8638969,5.4445264 8.5702459,5.3039123 8.2788177,5.1589138 c 0.00644,0.01493 0.015764,0.028927 0.01933,0.044793 0.010591,0.047114 0.016772,0.1685189 0.018883,0.2101943 0.00745,0.1469482 0.00802,0.2939248 0.00927,0.4410178 0.00177,0.2889961 -1.437e-4,0.5779955 -0.00788,0.8668956 -0.00327,0.1882124 -0.011962,0.3764441 -0.00599,0.5646592 0.00265,0.1850655 0.0419,0.3643535 0.1003229,0.5390179 0.036708,0.090202 0.079894,0.2001623 0.1697624,0.2521619 0.8945452,0.5176017 0.5596068,0.4833766 1.0024819,0.508576 0.258938,-0.00759 0.5130161,-0.09845 0.7337501,-0.2323796 0.05626,-0.034136 0.108513,-0.074479 0.162769,-0.1117184 0.215542,-0.1650082 0.407945,-0.3615873 0.557824,-0.5887813 0.08839,-0.1339866 0.118434,-0.2079746 0.187811,-0.3513097 0.09112,-0.2130645 0.167566,-0.4328147 0.214543,-0.6600466 0.0199,-0.096245 0.03101,-0.1810607 0.04519,-0.2777677 0.03837,-0.2478868 0.005,-0.4941615 -0.03746,-0.7386561 -0.0062,-0.037055 -0.01306,-0.073997 -0.01848,-0.1111665 -0.0014,-0.00956 -0.0123,-0.096002 -0.01153,-0.118672 1.48e-4,-0.00436 0.0078,0.014322 0.0038,0.012528 -0.294216,-0.13243 -0.578979,-0.2864485 -0.878557,-0.4062561 -0.02206,-0.00882 0.01821,0.043885 0.02732,0.065827 0.06061,0.1620771 0.131099,0.3199971 0.225543,0.4652378 0.232358,0.3063012 0.515073,0.3537108 0.943844,0.5812186 0.02136,0.011335 0.147889,-0.035213 0.171466,-0.043389 0.166654,-0.069831 0.284024,-0.2102337 0.407806,-0.3361524 0.07431,-0.083051 0.153046,-0.1661588 0.211857,-0.261335 0,0 -0.858092,-0.4803899 -0.858092,-0.4803899 v 0 c -0.007,0.079913 -0.121643,0.1808686 -0.165778,0.2459892 -0.112873,0.1186992 -0.230475,0.2411664 -0.395233,0.2814616 -0.03972,0.00636 -0.06222,0.013949 -0.102332,0.00509 -0.01329,-0.00294 -0.04922,-0.023024 -0.03754,-0.016052 1.448769,0.8641474 0.96627,0.6141665 0.709987,0.4043977 -0.111637,-0.1253805 -0.188222,-0.2746058 -0.235945,-0.4355394 -0.09665,-0.3822247 -0.0029,-0.070033 -0.911998,-0.5256741 -0.0065,-0.00324 0.0012,0.014544 0.0036,0.021384 0.04377,0.1282245 -0.0061,-0.059519 0.04437,0.1299998 0.01,0.037367 0.0184,0.075123 0.0276,0.1126837 0.04246,0.2353402 0.06996,0.4754618 0.05006,0.714743 -0.02675,0.3185184 -0.09031,0.6313726 -0.218173,0.9261456 -0.02664,0.057144 -0.05062,0.1156015 -0.0799,0.1714331 C 10.21119,7.318707 9.9890473,7.5661101 9.7232839,7.7554917 9.6693976,7.7886784 9.617395,7.825139 9.5616248,7.8550518 9.3379665,7.9750125 9.0827311,8.0487826 8.8285242,8.016473 8.4467593,7.9040325 8.722851,7.9765064 9.4784523,8.4285996 9.4991215,8.4409663 9.4338586,8.4098195 9.4134899,8.3969679 9.3678112,8.368145 9.3441482,8.3409897 9.3155637,8.2954841 9.302144,8.274119 9.2921004,8.2508126 9.2803701,8.2284767 9.2100965,8.0651352 9.1680553,7.8958521 9.1665728,7.7169356 9.155709,7.5273595 9.1609081,7.3371175 9.1534362,7.1473641 9.146319,6.8561121 9.1450119,6.5647791 9.1476048,6.2734525 9.1498538,6.0407943 9.1444378,5.8051697 9.178899,5.5747181 8.1187466,5.0177882 8.3802121,4.8462242 8.2161236,5.4478491 8.1411251,5.7399417 8.0601139,6.0305272 7.9835475,6.3222187 7.8635417,6.7522526 7.7267625,7.1850098 7.4090563,7.5142944 7.3608866,7.5582726 7.3155179,7.6055309 7.2645468,7.6462294 7.1033089,7.7749719 6.8945643,7.8880305 6.6835863,7.8958661 6.6465722,7.897242 6.6098147,7.8891219 6.5729286,7.8857511 6.2049305,7.7724695 6.4876724,7.8517588 7.2168662,8.2898299 7.2422424,8.3050752 7.1620623,8.2668535 7.1367705,8.2514714 7.1019066,8.2302677 7.0266721,8.1672739 6.9998174,8.1366634 6.9807806,8.1149649 6.9664992,8.0895136 6.94984,8.065939 6.8487911,7.8765574 6.7869016,7.667767 6.7625832,7.45448 6.7487667,7.1526809 6.7633241,6.849552 6.8290881,6.5536891 6.8580351,6.4358646 6.8877277,6.3166669 6.9308556,6.2029554 6.9414098,6.1751294 6.9538188,6.1479892 6.967213,6.1214137 6.9963315,6.0636371 6.9802147,6.059928 7.0061891,6.0702255 6.7277688,5.9003808 6.4536428,5.7232877 6.1709283,5.5606912 c -0.010065,-0.00579 0.00737,0.022278 0.00818,0.033861 0.00798,0.1140315 -0.02164,0.2294853 -0.038162,0.3411212 C 6.0684764,6.250552 5.9748009,6.5623381 5.8003783,6.8377548 5.7580839,6.8967907 5.7183443,6.9577436 5.6734953,7.0148629 5.4452051,7.3056122 5.1564092,7.5447961 4.8272107,7.7127152 4.7695786,7.7386179 4.7132361,7.7676062 4.654315,7.7904252 4.456849,7.8668993 4.2402132,7.9110672 4.0332014,7.8498807 3.6928726,7.697426 3.9159351,7.7939216 4.7079323,8.2591197 4.7291651,8.2715922 4.6647933,8.2350109 4.6452382,8.2200447 4.5746212,8.1660017 4.5368879,8.0925706 4.5105256,8.0090194 4.4403256,7.7298824 4.412253,7.4417374 4.451959,7.155141 4.508855,6.865055 4.5949525,6.5850637 4.7452933,6.3282829 4.7731809,6.2859446 4.7985867,6.2418629 4.8289561,6.2012678 4.9467455,6.0438185 5.1003967,5.9150101 5.2686865,5.8149497 5.4685482,5.7136453 5.6542632,5.6667452 5.8801187,5.6730931 c 0.1814677,0.00177 0.4221401,0.00361 0.5944388,0.05634 0.026175,0.00801 0.049904,0.022511 0.074856,0.033768 C 6.2906176,5.5851422 6.0264156,5.4146957 5.7730244,5.2290254 c -0.00795,-0.00583 0.033608,-0.013941 0.024225,-0.016968 -0.014997,-0.00484 -0.030612,0.00776 -0.046226,0.00987 C 5.6361044,5.2374471 5.519425,5.2335339 5.4043045,5.246898 4.9857741,5.2791605 4.5673089,5.3252158 4.1635388,5.4466598 3.6442102,5.5945325 3.1304372,5.7619989 2.6283293,5.9612606 2.2299586,6.1311805 1.8330552,6.3061431 1.4495117,6.5077458 1.3404546,6.5725603 1.2807608,6.6025198 1.1833723,6.6803936 1.0362596,6.7980273 0.93491464,6.9516074 0.86579428,7.125831 c -0.0152456,0.052118 -0.0346103,0.1032039 -0.0457363,0.1563537 -0.0679491,0.3245979 -0.001056,0.6587021 0.0537278,0.9793531 0.0358768,0.1684189 0.0443762,0.2244941 0.0915081,0.3860209 0.0141843,0.048611 0.00619,0.1146421 0.0471543,0.1444115 0.2815258,0.2045914 0.5851699,0.3787881 0.8938764,0.5394576 0.027599,0.014364 0.06251,-0.011681 0.089083,-0.027866 0.032731,-0.019934 0.056377,-0.051929 0.084566,-0.077893 C 2.1091947,9.1855847 2.140445,9.1469032 2.167638,9.105416 2.3590156,8.8134382 2.4771496,8.4798515 2.5927504,8.1529541 2.6108556,8.0846167 2.6306509,8.0167048 2.6470657,7.9479419 2.7414992,7.5523518 2.7909342,7.1474959 2.8508954,6.7458425 2.8955298,6.4065501 2.9320834,6.0669762 2.9671907,5.7265641 c 0.022706,-0.2201572 0.056238,-0.5330502 0.072032,-0.7547335 0.00826,-0.1159449 0.012308,-0.2321515 0.018465,-0.3482274 0.012007,-0.3421504 0.024426,-0.6838997 0.063225,-1.0243597 0.023035,-0.2021197 0.05814,-0.4495271 0.1112345,-0.6470878 0.024598,-0.091528 0.060846,-0.17952 0.091269,-0.2692799 0.079126,-0.1374698 0.084446,-0.190091 0.2097124,-0.2737274 0.053367,-0.035631 0.1275546,-0.056554 0.1921243,-0.053707 0.027322,0.0012 0.053447,0.011626 0.080171,0.017438 C 3.5600412,2.2253515 3.3146576,2.077823 3.069274,1.9302946 c 0.026011,0.016703 0.055298,0.029166 0.078036,0.050108 0.1242369,0.1144245 0.2019638,0.3380293 0.2268614,0.4990448 0.0096,0.062098 0.010274,0.1252519 0.015412,0.1878777 -0.00315,0.069147 -0.00156,0.1386727 -0.00945,0.2074418 C 3.3334216,3.2825864 3.158582,3.6587371 2.9099737,3.9815997 2.7616195,4.1514781 2.7059511,4.2299233 2.5281989,4.3731904 2.2264607,4.6163896 1.8683972,4.7745189 1.5127672,4.92009 1.2550728,5.0149717 0.99661693,5.1123079 0.73209072,5.1861179 c 0,0 0.81703428,0.5556676 0.81703428,0.5556676 z" />
    <path
       style="fill:#0000ff;stroke-width:1"
       id="path649"
       d="m 3.342256,9.6537382 c 0.049283,0.00559 0.067227,0.00715 0.122573,0.016391 0.1532083,0.025588 0.1042099,0.024141 0.2817503,0.042086 0.2194936,0.022188 0.2548038,0.018648 0.4931794,0.026207 0.8455586,0.020479 1.6867155,-0.071995 2.5272118,-0.1492033 0.6715665,-0.053813 1.3442477,-0.1004491 2.0178535,-0.1188186 0.4893321,-0.013343 0.6105938,-0.0096 1.0897688,-0.00835 0.2498592,0.00443 0.5506082,0.00792 0.8038512,0.018693 0.09001,0.00383 0.180354,0.00527 0.269816,0.015933 0.05926,0.00706 0.225607,0.068975 0.175143,0.037118 -0.730917,-0.4614156 -0.55315,-0.601962 -0.799111,-0.383013 -0.05484,0.041669 -0.106084,0.088552 -0.16452,0.125008 C 9.9595185,9.4007203 9.743928,9.493544 9.524136,9.5779191 9.2667009,9.6767451 8.9725631,9.769583 8.7062547,9.8406271 c -0.1340575,0.035763 -0.2698541,0.064654 -0.4047813,0.096982 -0.1288327,0.02417 -0.2571723,0.051136 -0.3864985,0.072509 -0.2193349,0.03625 -0.5655517,0.07796 -0.7849563,0.105653 -0.4237726,0.05348 -0.8469276,0.11025 -1.2700201,0.168872 -0.5331063,0.08495 -1.0702589,0.148732 -1.6003667,0.252152 -0.143461,0.02799 -0.2857749,0.06157 -0.4286623,0.09235 -0.1498412,0.02886 -0.2996824,0.05773 -0.4495239,0.08659 -0.3468132,0.06843 -0.6982156,0.112843 -1.0444396,0.184461 -0.0594,0.01229 -0.1197989,0.02219 -0.1769026,0.04265 -0.030182,0.01081 -0.07602,0.01865 -0.082086,0.05013 -0.00881,0.04574 0.031382,0.08772 0.047073,0.131575 0.3357719,0.161699 0.6590457,0.352441 1.0073157,0.485096 0.09561,0.03642 0.2043279,0.01103 0.3065471,0.01535 0.1319961,0.0056 0.2640433,0.0099 0.3960823,0.01432 0.4485777,0.01507 0.8972647,0.027 1.3458994,0.04022 0.5478608,0.0078 1.0956387,0.01128 1.6434231,0.02418 0,0 -0.6622587,-0.481395 -0.6622587,-0.481395 v 0 c -0.536208,0.01085 -1.072288,0.01079 -1.608524,-7.41e-4 -0.5939555,-0.0089 -1.1915344,-0.01647 -1.7816267,-0.09263 -0.1169892,-0.0151 -0.4174661,-0.154024 -0.349111,-0.05789 0.137269,0.193056 0.3932083,0.264275 0.5898123,0.396413 -0.038328,0.01107 -0.075353,0.03782 -0.1149834,0.03322 -0.016245,-0.0019 0.00828,-0.03459 0.021624,-0.04404 0.039581,-0.02803 0.085296,-0.04692 0.1307396,-0.06388 0.3087573,-0.115192 0.6391238,-0.164899 0.9584028,-0.2391 0.862172,-0.158382 0.045886,-0.01169 0.9077124,-0.157001 0.5261806,-0.08872 1.0507252,-0.187718 1.5790074,-0.263743 0.4270102,-0.0586 0.8544864,-0.108155 1.2824991,-0.15869 0.2278894,-0.02691 0.5671955,-0.06519 0.7941511,-0.106724 0.1269241,-0.02323 0.2521146,-0.05509 0.3781719,-0.08264 0.1333159,-0.03483 0.2673294,-0.06709 0.3999479,-0.104489 0.1841759,-0.05194 0.6550453,-0.19934 0.8340623,-0.259175 0.216231,-0.072274 0.503665,-0.1731312 0.716031,-0.2672289 0.07907,-0.035034 0.154508,-0.077741 0.231761,-0.116612 0.316012,-0.3905295 0.210254,-0.1644181 -0.744467,-0.6520114 -0.04256,-0.021736 -0.09558,-0.00262 -0.143351,-0.0013 -0.3227403,0.0089 -0.6448171,0.040447 -0.9677823,0.044505 C 8.6835553,9.0474354 8.8367909,9.0442022 8.2122692,9.056849 8.0524807,9.0600849 7.2512885,9.0735601 7.0798724,9.080524 6.8270863,9.0907924 6.3950802,9.1250769 6.1422877,9.143897 5.2830952,9.2201385 4.4199823,9.3158965 3.5569895,9.2346289 3.2238452,9.1972735 2.8781073,9.1673136 2.5640864,9.0413561 c 0,0 0.778171,0.6123789 0.778171,0.6123789 z" />
    <path
       style="fill:#0000ff;stroke-width:1"
       id="path651"
       d="M 1.3068652,2.5723064 C 1.3393843,2.2926333 1.4905423,2.0503899 1.6477264,1.8242739 1.752344,1.7076458 1.7921815,1.6495641 1.9283574,1.5592941 2.3157206,1.3025139 2.7915891,1.2436461 3.2392051,1.1729892 3.7566645,1.1138541 4.2804987,1.06483 4.8007261,1.1202571 c 0.1040377,0.011084 0.2084393,0.023238 0.3103568,0.046892 0.096948,0.0225 0.189552,0.060751 0.2843281,0.091127 0.087884,0.043254 0.3472834,0.1807527 0.2636502,0.1297632 C 4.6977966,0.8019748 5.1873208,1.1211244 5.3592579,1.2706481 c 0.05499,0.047821 0.107584,0.098648 0.1564317,0.1527285 0.1192945,0.1320734 0.1315037,0.1695597 0.218467,0.3181555 0.1436108,0.2909178 0.1630304,0.6207634 0.2544296,0.9281214 0.019055,0.064074 0.045104,0.125857 0.067655,0.1887855 0.02861,0.05255 0.051013,0.10899 0.085831,0.1576501 0.033946,0.047443 0.069714,0.097035 0.1188749,0.1284433 0.3038017,0.1940957 0.6160833,0.3753895 0.9344591,0.5445204 0.057511,0.030552 0.124777,0.037754 0.1883346,0.051942 0.1829904,0.04085 0.2274343,0.03693 0.416432,0.05072 0.3097395,0.016235 0.597957,-0.082602 0.8870831,-0.1772471 0.1618646,-0.052986 0.2507517,-0.079928 0.4115276,-0.1298313 0.2358781,-0.06243 0.4771152,-0.1397068 0.7239688,-0.1401323 0.04081,-7.04e-5 0.081494,0.00452 0.1222414,0.00678 0.2762033,0.017693 0.5419333,0.085855 0.8015333,0.1781868 0.117111,0.051618 0.112666,0.04637 0.223985,0.1084472 0.03583,0.019979 0.141772,0.082588 0.106156,0.062241 -1.2954775,-0.7400756 -0.766893,-0.4415639 -0.484463,-0.2703865 0.03414,0.020392 0.06789,0.041465 0.102429,0.061174 0.303582,0.1732235 0.605094,0.3501962 0.911917,0.5176118 0.03782,0.020635 0.07989,0.03245 0.120814,0.04589 0.124143,0.040765 0.253198,0.065784 0.380984,0.091734 0.03529,0.00566 0.07058,0.011316 0.105865,0.016973 0,0 -0.757317,-0.56895 -0.757317,-0.56895 v 0 c -0.0326,-0.00529 -0.06521,-0.010589 -0.09781,-0.015885 -0.124553,-0.025776 -0.246073,-0.054268 -0.364564,-0.1019281 -0.04061,-0.016333 -0.156855,-0.07724 -0.119499,-0.054429 0.05106,0.03118 1.030039,0.6008439 0.59003,0.344773 C 11.093858,3.5440313 10.726636,3.3297637 10.347738,3.1114132 10.281645,3.0733253 10.195919,3.030171 10.125635,3.0006922 10.087742,2.9847987 10.048722,2.9717402 10.010266,2.9572643 9.7434076,2.8731614 9.470042,2.8143829 9.1897897,2.7997115 9.1461036,2.7998639 9.1023338,2.7974626 9.0587313,2.8001613 8.8168857,2.8151738 8.5859712,2.9087381 8.3579972,2.9816644 8.2026746,3.0360265 8.1165207,3.0672233 7.9576236,3.1183527 7.8194351,3.1628188 7.6667092,3.2123451 7.5231854,3.2379454 7.3272321,3.2728974 7.2835602,3.2634406 7.0857823,3.2618558 6.9176068,3.2409299 6.8341898,3.2380406 6.6727553,3.1893674 6.6100642,3.1704655 6.4353108,3.0824672 6.4889847,3.1199719 6.6853617,3.2571896 6.8993194,3.3673497 7.1044868,3.4910387 7.060634,3.4551233 7.0111577,3.4251437 6.9729286,3.3832929 6.9326616,3.3392115 6.9051918,3.284956 6.8713235,3.2357875 6.7867934,3.0409702 6.7858589,3.0634985 6.7383889,2.8502268 6.6829701,2.6012529 6.6796787,2.3399784 6.5582185,2.1088471 6.4747375,1.9595952 6.4473446,1.893549 6.3323673,1.7610356 6.2602181,1.6778826 6.0504778,1.4820664 5.9621694,1.4266296 5.1413483,0.91134752 5.275835,0.98282349 4.724727,0.74100668 4.6282445,0.71504018 4.5335621,0.68109697 4.4352792,0.66310716 4.336987,0.64511565 4.2367319,0.63925362 4.1369768,0.63342419 3.6211549,0.60328087 3.1060263,0.66532251 2.5940355,0.71900393 c -0.3188189,0.0469742 -0.49499,0.0651122 -0.8065324,0.14128287 -0.2879645,0.070406 -0.5699923,0.16095 -0.79557895,0.3619338 -0.0470263,0.041897 -0.0839137,0.093947 -0.12587057,0.14092 -0.0360548,0.04976 -0.073862,0.098296 -0.10816421,0.1492804 -0.12380473,0.1840131 -0.21876271,0.3848366 -0.31629625,0.5833427 0,0 0.86527208,0.4765427 0.86527208,0.4765427 z" />
  </g>
</svg>
